#!OML:ASF X:\für Bonn\!DataBase\2005_08_12_Daniel\c3d\Daniel.ASF
:FULLY-SPECIFIED
:DEGREES
192
root 0.736403 16.3 0.997391 891.093 -40.2666 -178.947
lowerback 35.7985 -4.59521 10.6401
upperback 8.72545 -4.07528 -0.998429
thorax -8.59288 -2.78748 -4.91878
lowerneck -4.94172 2.87406 -2.05772
upperneck -2.33054 3.82144 -3.10667
head 0.118731 1.86532 -0.548615
rclavicle 1.00187e-013 -5.08889e-014
rhumerus -40.7944 -6.55322 -85.1133
rradius 68.8247
rwrist 7.99817
rhand -33.3115 7.07184
rfingers 7.12502
rthumb -6.51495 -22.808
lclavicle 1.00187e-013 -5.08889e-014
lhumerus -28.9889 16.9165 82.3444
lradius 72.0183
lwrist -24.2801
lhand -26.6019 2.83962
lfingers 7.12502
lthumb -0.0355789 32.8194
rfemur -30.4294 -5.54018 25.6375
rtibia 53.4089
rfoot -14.5237 12.8164
rtoes -4.63858
lfemur 4.49486 3.95191 -18.2636
ltibia 72.1303
lfoot -8.29826 -8.22024
ltoes -9.70542
193
root 0.665825 16.3088 0.897647 890.931 -40.283 -178.944
lowerback 35.9064 -4.55154 10.6767
upperback 8.76317 -4.00959 -0.998203
thorax -8.57873 -2.7605 -4.95886
lowerneck -4.91225 2.88672 -1.92268
upperneck -2.35849 3.82931 -3.2047
head 0.110538 1.86842 -0.600833
rclavicle -7.95139e-016 -4.6118e-014
rhumerus -40.6412 -6.60018 -85.0259
rradius 68.7298
rwrist 8.09349
rhand -33.2684 7.14133
rfingers 7.12502
rthumb -6.47334 -22.7397
lclavicle -7.95139e-016 -4.6118e-014
lhumerus -28.9618 16.7856 82.3412
lradius 72.0821
lwrist -24.2139
lhand -26.6305 2.87635
lfingers 7.12502
lthumb -0.0631702 32.8561
rfemur -29.8438 -5.74697 25.6186
rtibia 53.5626
rfoot -14.8949 13.0946
rtoes -4.30703
lfemur 3.6012 4.00254 -18.0303
ltibia 73.2392
lfoot -8.82224 -8.24803
ltoes -9.54266
194
root 0.595358 16.318 0.798092 890.752 -40.304 -178.918
lowerback 36.017 -4.50679 10.706
upperback 8.78061 -3.93781 -0.974468
thorax -8.58492 -2.73099 -4.97168
lowerneck -4.85749 2.89876 -1.82055
upperneck -2.38105 3.83714 -3.32468
head 0.0997004 1.8717 -0.654838
rclavicle 4.45278e-014 3.97569e-016
rhumerus -40.5675 -6.5449 -84.9031
rradius 68.7017
rwrist 8.1306
rhand -33.2648 7.1586
rfingers 7.12502
rthumb -6.46989 -22.7226
lclavicle 4.45278e-014 3.97569e-016
lhumerus -28.9991 16.7015 82.3438
lradius 72.1993
lwrist -24.126
lhand -26.5633 2.86574
lfingers 7.12502
lthumb 0.00173825 32.8455
rfemur -29.2402 -5.95822 25.6135
rtibia 53.6905
rfoot -15.247 13.3532
rtoes -3.97829
lfemur 2.70222 4.00948 -17.8194
ltibia 74.2689
lfoot -9.38606 -8.23508
ltoes -9.67923
195
root 0.525494 16.3269 0.699111 890.616 -40.3304 -178.935
lowerback 36.1039 -4.45823 10.7103
upperback 8.80338 -3.87464 -0.97642
thorax -8.58028 -2.70392 -4.9975
lowerneck -4.88373 2.9132 -1.71832
upperneck -2.36489 3.85201 -3.42535
head 0.113539 1.87709 -0.701483
rclavicle -7.25564e-014 4.8901e-014
rhumerus -40.4527 -6.5016 -84.8291
rradius 68.6391
rwrist 8.21492
rhand -33.2788 7.14687
rfingers 7.12502
rthumb -6.48332 -22.7339
lclavicle -7.25564e-014 4.8901e-014
lhumerus -29.0073 16.6056 82.315
lradius 72.2724
lwrist -24.0074
lhand -26.5014 2.87562
lfingers 7.12502
lthumb 0.0614859 32.8554
rfemur -28.6538 -6.17126 25.5685
rtibia 53.8109
rfoot -15.5768 13.6306
rtoes -3.68456
lfemur 1.76948 3.97601 -17.6835
ltibia 75.2401
lfoot -9.94587 -8.17074
ltoes -10.0424
196
root 0.456444 16.3351 0.601141 890.428 -40.3585 -178.929
lowerback 36.2441 -4.40899 10.7361
upperback 8.80797 -3.79361 -0.964868
thorax -8.61077 -2.67048 -5.02356
lowerneck -4.92429 2.91255 -1.70538
upperneck -2.31986 3.85316 -3.46499
head 0.135133 1.87613 -0.714727
rclavicle 5.34731e-014 -3.53837e-014
rhumerus -40.3934 -6.42151 -84.7184
rradius 68.6304
rwrist 8.20489
rhand -33.2906 7.16325
rfingers 7.12502
rthumb -6.49474 -22.7172
lclavicle 5.34731e-014 -3.53837e-014
lhumerus -29.063 16.4797 82.3049
lradius 72.353
lwrist -23.8221
lhand -26.4665 2.79299
lfingers 7.12502
lthumb 0.0951799 32.7727
rfemur -28.0191 -6.40355 25.5346
rtibia 53.9073
rfoot -15.903 13.8978
rtoes -3.36935
lfemur 0.869659 3.89901 -17.5532
ltibia 76.1568
lfoot -10.511 -8.15107
ltoes -9.92153
197
root 0.387288 16.3438 0.503798 890.28 -40.3825 -178.948
lowerback 36.328 -4.35727 10.737
upperback 8.83586 -3.72948 -0.968338
thorax -8.59904 -2.64291 -5.05013
lowerneck -5.04182 2.92205 -1.68104
upperneck -2.24164 3.87046 -3.50656
head 0.179951 1.88161 -0.7288
rclavicle 5.04913e-014 -6.75868e-014
rhumerus -40.2918 -6.30694 -84.6335
rradius 68.6086
rwrist 8.19058
rhand -33.2831 7.15729
rfingers 7.12502
rthumb -6.48753 -22.7233
lclavicle 5.04913e-014 -6.75868e-014
lhumerus -29.1264 16.3961 82.2658
lradius 72.458
lwrist -23.5936
lhand -26.3554 2.6895
lfingers 7.12502
lthumb 0.202503 32.6691
rfemur -27.404 -6.6147 25.4809
rtibia 53.9851
rfoot -16.2381 14.1483
rtoes -3.15193
lfemur -0.0922148 3.84245 -17.465
ltibia 77.0263
lfoot -11.0399 -8.12456
ltoes -9.38527
198
root 0.318082 16.3534 0.407614 890.098 -40.4208 -178.963
lowerback 36.4194 -4.30955 10.7533
upperback 8.86064 -3.66379 -0.978517
thorax -8.59383 -2.61471 -5.09199
lowerneck -5.08479 2.92764 -1.67066
upperneck -2.19193 3.88064 -3.53851
head 0.20331 1.88519 -0.739087
rclavicle 6.81831e-014 -1.07344e-014
rhumerus -40.2457 -6.18845 -84.564
rradius 68.6355
rwrist 8.17675
rhand -33.2535 7.1477
rfingers 7.12502
rthumb -6.45897 -22.7338
lclavicle 6.81831e-014 -1.07344e-014
lhumerus -29.2099 16.29 82.222
lradius 72.5386
lwrist -23.3827
lhand -26.2665 2.58093
lfingers 7.12502
lthumb 0.288309 32.5605
rfemur -26.7356 -6.85357 25.4108
rtibia 54.0344
rfoot -16.5375 14.4185
rtoes -2.88892
lfemur -1.07183 3.78937 -17.3933
ltibia 77.8549
lfoot -11.5181 -8.07202
ltoes -8.97378
199
root 0.249103 16.3633 0.311947 889.939 -40.4555 -178.983
lowerback 36.4435 -4.24897 10.7647
upperback 8.90582 -3.59248 -0.975718
thorax -8.54035 -2.58203 -5.1239
lowerneck -5.11332 2.92551 -1.70603
upperneck -2.16326 3.88079 -3.57587
head 0.21688 1.88413 -0.744097
rclavicle -8.32908e-014 4.45278e-014
rhumerus -40.1253 -6.06593 -84.457
rradius 68.5968
rwrist 8.19203
rhand -33.2819 7.13288
rfingers 7.12502
rthumb -6.48632 -22.7478
lclavicle -8.32908e-014 4.45278e-014
lhumerus -29.2679 16.2038 82.2039
lradius 72.6006
lwrist -23.1581
lhand -26.1911 2.39732
lfingers 7.12502
lthumb 0.361205 32.3768
rfemur -26.0823 -7.08347 25.3389
rtibia 54.0666
rfoot -16.8336 14.6731
rtoes -2.59387
lfemur -2.08591 3.76951 -17.331
ltibia 78.6095
lfoot -11.97 -8.00888
ltoes -8.3795
200
root 0.180074 16.3729 0.21724 889.756 -40.506 -178.994
lowerback 36.4665 -4.20159 10.7984
upperback 8.94606 -3.52915 -0.985224
thorax -8.49451 -2.5528 -5.1771
lowerneck -5.07231 2.9223 -1.77434
upperneck -2.18016 3.87817 -3.55934
head 0.203042 1.88413 -0.728626
rclavicle -3.99557e-014 -3.89618e-014
rhumerus -40.0831 -5.93927 -84.3678
rradius 68.6327
rwrist 8.18153
rhand -33.2496 7.07236
rfingers 7.12502
rthumb -6.45518 -22.8093
lclavicle -3.99557e-014 -3.89618e-014
lhumerus -29.3477 16.159 82.1787
lradius 72.6396
lwrist -23.0199
lhand -26.0997 2.21081
lfingers 7.12502
lthumb 0.449429 32.1901
rfemur -25.4048 -7.31625 25.2546
rtibia 54.0846
rfoot -17.1087 14.9399
rtoes -2.31951
lfemur -3.07388 3.70186 -17.2835
ltibia 79.2851
lfoot -12.4699 -7.9109
ltoes -8.00884
201
root 0.11269 16.3801 0.123999 889.573 -40.5422 -179.009
lowerback 36.4891 -4.13594 10.791
upperback 8.98968 -3.45775 -0.979469
thorax -8.44181 -2.51992 -5.19622
lowerneck -5.0417 2.92377 -1.83167
upperneck -2.18343 3.88181 -3.56746
head 0.195979 1.88659 -0.722142
rclavicle 1.37161e-014 -2.18663e-014
rhumerus -40.013 -5.78322 -84.2656
rradius 68.648
rwrist 8.13158
rhand -33.2509 7.06004
rfingers 7.12502
rthumb -6.45644 -22.8215
lclavicle 1.37161e-014 -2.18663e-014
lhumerus -29.4138 16.157 82.1762
lradius 72.6571
lwrist -22.8873
lhand -26.0222 2.00948
lfingers 7.12502
lthumb 0.524263 31.9886
rfemur -24.7374 -7.54928 25.1749
rtibia 54.1071
rfoot -17.3942 15.1782
rtoes -2.06146
lfemur -4.04133 3.65433 -17.232
ltibia 79.8857
lfoot -12.9658 -7.81067
ltoes -7.8144
202
root 0.0463633 16.3869 0.0320587 889.373 -40.5739 -178.98
lowerback 36.52 -4.07322 10.8069
upperback 9.01548 -3.37597 -0.970215
thorax -8.41031 -2.48245 -5.22673
lowerneck -4.99301 2.92031 -1.82749
upperneck -2.19329 3.87453 -3.63219
head 0.186526 1.88301 -0.743542
rclavicle 5.36719e-014 6.36111e-015
rhumerus -39.9427 -5.68235 -84.176
rradius 68.63
rwrist 8.13302
rhand -33.2442 7.10719
rfingers 7.12502
rthumb -6.44992 -22.7746
lclavicle 5.36719e-014 6.36111e-015
lhumerus -29.502 16.1538 82.1705
lradius 72.683
lwrist -22.804
lhand -25.9456 1.87687
lfingers 7.12502
lthumb 0.598296 31.8558
rfemur -24.0976 -7.76791 25.1389
rtibia 54.1338
rfoot -17.6813 15.3925
rtoes -1.9164
lfemur -5.02564 3.59027 -17.1429
ltibia 80.4288
lfoot -13.4727 -7.69133
ltoes -7.63471
203
root -0.0190733 16.3923 -0.058498 889.198 -40.6311 -178.994
lowerback 36.5511 -4.00536 10.7915
upperback 9.04485 -3.30059 -0.978413
thorax -8.3773 -2.44712 -5.25754
lowerneck -4.9696 2.92254 -1.74794
upperneck -2.18545 3.87285 -3.72621
head 0.189043 1.88111 -0.785692
rclavicle -3.79679e-014 -8.74653e-015
rhumerus -39.8754 -5.58083 -84.1057
rradius 68.6128
rwrist 8.15301
rhand -33.2415 7.06198
rfingers 7.12502
rthumb -6.44737 -22.8199
lclavicle -3.79679e-014 -8.74653e-015
lhumerus -29.5695 16.1588 82.1395
lradius 72.678
lwrist -22.7676
lhand -25.8974 1.81474
lfingers 7.12502
lthumb 0.644835 31.7935
rfemur -23.4679 -7.99327 25.0483
rtibia 54.1712
rfoot -17.9543 15.618
rtoes -1.72538
lfemur -6.00419 3.5047 -17.1119
ltibia 80.909
lfoot -14.0118 -7.54723
ltoes -7.92758
